<?xml version="1.0" encoding="UTF-8"?>
<svg width="106px" height="39px" viewBox="0 0 106 39" version="1.1" xmlns="http://www.w3.org/2000/svg" xmlns:xlink="http://www.w3.org/1999/xlink">
    <!-- Generator: Sketch 45.2 (43514) - http://www.bohemiancoding.com/sketch -->
    <title>Group 29</title>
    <desc>Created with Sketch.</desc>
    <defs>
        <linearGradient x1="28.7157241%" y1="7.94648389%" x2="125.203932%" y2="92.2144104%" id="linearGradient-1">
            <stop stop-color="#00CDFE" offset="0%"></stop>
            <stop stop-color="#00ABFE" offset="100%"></stop>
        </linearGradient>
        <linearGradient x1="85.5328338%" y1="11.6899237%" x2="43.8589371%" y2="53.8043962%" id="linearGradient-2">
            <stop stop-color="#00CDFE" offset="0%"></stop>
            <stop stop-color="#00ABFE" offset="100%"></stop>
        </linearGradient>
    </defs>
    <g id="Symbols" stroke="none" stroke-width="1" fill="none" fill-rule="evenodd">
        <g id="barra_menu" transform="translate(-56.000000, -10.000000)">
            <g id="Group">
                <g id="Group-29" transform="translate(56.684557, 9.218858)">
                    <g id="Page-1-Copy-2" transform="translate(41.082360, 20.978227)" fill="#CADBE8">
                        <path d="M8.07835974,11.3417098 C8.07835974,11.0890069 8.27218919,2.71675189 8.27218919,2.71675189 L5.99650459,11.3417098 L4.2271315,11.3417098 L1.95189977,2.71675189 C1.95189977,2.71675189 2.14482348,10.999791 2.14482348,11.3417098 L0.226455321,11.3417098 L0.226455321,0.842765238 L3.0818168,0.842765238 L5.13423524,8.63534335 L7.15676408,0.842765238 L9.9967279,0.842765238 L9.9967279,11.3417098 L8.07835974,11.3417098 Z" id="Fill-12"></path>
                        <polygon id="Fill-14" points="23.9288993 11.3417098 23.9288993 6.568433 19.4228173 6.568433 19.4228173 11.3417098 17.4451229 11.3417098 17.4451229 0.842765238 19.4228173 0.842765238 19.4228173 4.79860704 23.9288993 4.79860704 23.9288993 0.842765238 25.9065937 0.842765238 25.9065937 11.3417098"></polygon>
                        <polygon id="Fill-16" points="33.3396816 11.3417098 33.3396816 0.842765238 40.80438 0.842765238 40.80438 2.5976464 35.2729946 2.5976464 35.2729946 5.06670759 40.3438086 5.06670759 40.3438086 6.76180958 35.2729946 6.76180958 35.2729946 9.57233668 41.1766413 9.57233668 41.1766413 11.3417098"></polygon>
                        <path d="M55.9267005,8.41216776 C55.5847817,9.30477957 54.4095774,11.6099009 51.3907289,11.6099009 C48.9076287,11.6099009 46.4834019,9.91389316 46.4834019,5.98794095 C46.4834019,3.65338291 47.8071484,0.575208131 51.4654529,0.575208131 C54.1718193,0.575208131 55.2872444,2.3151445 55.7333239,3.81732278 L53.7850662,4.32272855 C53.6664135,3.17741385 52.6995306,2.37447081 51.539724,2.37447081 C49.8296772,2.37447081 48.6105443,3.6832725 48.6105443,6.01828341 C48.6105443,7.44573772 49.1902212,9.75040617 51.5247792,9.75040617 C52.8784153,9.75040617 53.7556294,8.70970503 54.0681115,7.6391143 L55.9267005,8.41216776 Z" id="Fill-18"></path>
                        <polygon id="Fill-20" points="61.813455 11.3417098 63.746768 11.3417098 63.746768 0.842765238 61.813455 0.842765238"></polygon>
                    </g>
                    <g id="Group-15" transform="translate(0.000000, 0.722939)">
                        <polygon id="Fill-1" fill="#CADBE8" points="0 38.4466296 11.2643199 38.4466296 11.2643199 15.9186672 0 15.9186672"></polygon>
                        <polygon id="Fill-2" fill="#CADBE8" points="20.6603979 38.4466296 31.9247178 38.4466296 31.9247178 15.9186672 20.6603979 15.9186672"></polygon>
                        <polygon id="Fill-3" fill="url(#linearGradient-1)" points="0 16.0937726 7.96509144 8.12868114 23.8949356 24.058864 15.9298442 32.0236168"></polygon>
                        <polygon id="Fill-4" fill="url(#linearGradient-2)" points="31.6842443 0 7.7899861 23.8945969 15.7550775 31.8596884 39.6493358 7.96509144 39.6493358 7.96441405 31.6849217 0"></polygon>
                    </g>
                </g>
            </g>
        </g>
    </g>
</svg>