<?xml version="1.0" encoding="UTF-8"?>
<svg width="77px" height="129px" viewBox="0 0 77 129" version="1.1" xmlns="http://www.w3.org/2000/svg" xmlns:xlink="http://www.w3.org/1999/xlink">
    <!-- Generator: Sketch 46.1 (44463) - http://www.bohemiancoding.com/sketch -->
    <title>Page 1</title>
    <desc>Created with Sketch.</desc>
    <defs>
        <polygon id="path-1" points="76.3686017 128.411612 76.3686017 0.365482718 0.000246947782 0.365482718 0.000246947782 128.411612"></polygon>
    </defs>
    <g id="-" stroke="none" stroke-width="1" fill="none" fill-rule="evenodd">
        <g id="02" transform="translate(-573.000000, -422.000000)">
            <g id="Group-4" transform="translate(550.000000, 421.000000)">
                <g id="Page-1" transform="translate(23.000000, 0.000000)">
                    <path d="M15.7392169,97.2600918 C15.057641,97.2600918 14.504478,97.8132549 14.504478,98.4948308 L14.504478,128.084114 C14.504478,128.768159 15.057641,129.318853 15.7392169,129.318853 C16.4207928,129.318853 16.9739558,128.768159 16.9739558,128.084114 L16.9739558,98.4948308 C16.9739558,97.8132549 16.4207928,97.2600918 15.7392169,97.2600918" id="Fill-1" fill="#00ABFE"></path>
                    <path d="M59.9221264,97.2600918 C59.2405505,97.2600918 58.6873874,97.8132549 58.6873874,98.4948308 L58.6873874,128.084114 C58.6873874,128.768159 59.2405505,129.318853 59.9221264,129.318853 C60.6037022,129.318853 61.1568653,128.768159 61.1568653,128.084114 L61.1568653,98.4948308 C61.1568653,97.8132549 60.6037022,97.2600918 59.9221264,97.2600918" id="Fill-3" fill="#00ABFE"></path>
                    <path d="M37.252073,55.3705865 L41.8131985,55.3705865 C42.4947744,55.3705865 43.0479374,54.8174234 43.0479374,54.1358475 L43.0479374,41.1809669 C43.7986587,40.5290247 45.5742133,39.2547742 47.9325646,39.2547742 C50.9502665,39.2547742 52.5628355,41.3637082 52.6270419,41.445201 C52.8665813,41.7785805 53.2444114,41.9539134 53.624711,41.9539134 C53.8765977,41.9539134 54.1309539,41.8773596 54.3507374,41.719313 C54.901431,41.3192576 55.0249049,40.5463111 54.62238,39.993148 C54.5285398,39.8647352 52.2393339,36.7852963 47.9325646,36.7852963 C43.707288,36.7852963 40.9439423,39.7610171 40.8278769,39.8869605 C40.5241311,40.22034 40.4574552,40.669785 40.5784596,41.0698404 L40.5784596,52.9011086 L37.252073,52.9011086 C36.5704971,52.9011086 36.0173341,53.4542717 36.0173341,54.1358475 C36.0173341,54.8174234 36.5704971,55.3705865 37.252073,55.3705865" id="Fill-5" fill="#00ABFE"></path>
                    <path d="M32.9833336,41.2723376 C33.2253424,41.6057171 33.6007031,41.78105 33.9834721,41.78105 C34.2353589,41.78105 34.4872456,41.7044962 34.7070291,41.5439801 C35.2601922,41.1439247 35.3811966,40.3734476 34.9811412,39.8202846 C34.8848315,39.6894023 32.5956256,36.6099634 28.2888563,36.6099634 C24.0635797,36.6099634 21.300234,39.5856842 21.1841686,39.714097 C20.7248457,40.2178705 20.7618879,41.000695 21.2656613,41.4575484 C21.7669653,41.9193407 22.5473203,41.8822986 23.0091127,41.3785251 C23.031338,41.3538303 25.1427415,39.0794412 28.2888563,39.0794412 C31.3065582,39.0794412 32.9215967,41.1908448 32.9833336,41.2723376" id="Fill-7" fill="#00ABFE"></path>
                    <path d="M46.7837635,60.2660793 C47.344335,59.8808408 47.4826257,59.1153026 47.0973872,58.5547312 C46.7146181,57.9966292 45.9466105,57.8484605 45.3835696,58.233699 C45.3564053,58.2509854 42.5584869,60.1203801 38.4196421,60.1203801 C34.3771069,60.1203801 32.2657034,58.3843372 32.1842106,58.3176613 C31.6680897,57.8706858 30.8877347,57.9274838 30.4407592,58.4436047 C29.9962532,58.957256 30.0505818,59.737611 30.5667026,60.1845865 C30.6802986,60.2833656 33.4016632,62.5898579 38.4196421,62.5898579 C43.3610672,62.5898579 46.6454727,60.3623889 46.7837635,60.2660793" id="Fill-9" fill="#00ABFE"></path>
                    <g id="Group-13" transform="translate(0.000000, 0.906994)">
                        <mask id="mask-2" fill="white">
                            <use xlink:href="#path-1"></use>
                        </mask>
                        <g id="Clip-12"></g>
                        <path d="M47.1178838,85.3513273 L42.3764864,81.4421439 L43.2185784,81.4421439 C45.9374734,81.4421439 48.2118625,79.5258291 48.7773729,76.9748585 L49.9775392,78.6417561 L47.1178838,85.3513273 Z M29.3129487,85.3784916 L26.4730492,78.6615119 L27.665807,77.0119007 C28.2461343,79.5431155 30.5057065,81.4421439 33.2122542,81.4421439 L34.1111441,81.4421439 L29.3129487,85.3784916 Z M37.7807882,71.6185611 C40.8231849,71.6185611 43.7396382,71.0629286 46.4486553,70.0677291 L46.4486553,75.7425891 C46.4486553,77.5230826 45.0015413,78.9726661 43.2185784,78.9726661 L33.2122542,78.9726661 C31.4292912,78.9726661 29.9821772,77.5230826 29.9821772,75.7425891 L29.9821772,70.3615969 C32.4442466,71.1641772 35.0594236,71.6185611 37.7807882,71.6185611 L37.7807882,71.6185611 Z M15.0393669,47.6621568 C15.0146721,47.2151813 14.7479685,46.8151259 14.3429742,46.6175676 C14.1725802,46.5385443 13.9898388,46.4990327 13.8070975,46.4990327 C13.5552107,46.4990327 13.303324,46.5755865 13.0909489,46.7262247 C12.9501887,46.8274732 12.7946116,46.908966 12.6340955,46.960825 C11.0733855,47.4596596 8.93975667,45.575448 8.06062257,42.903473 C7.17654951,40.226559 7.76675471,37.4286406 9.32499521,36.9149893 C10.3374811,36.5791403 11.6808771,37.2928194 12.7427525,38.7325249 C12.9575971,39.0239233 13.2909766,39.2066647 13.6515204,39.2338289 C13.9947778,39.2535848 14.3651995,39.1251719 14.6195557,38.8658767 C14.7948886,38.6880743 18.6917246,34.5912106 19.0646158,25.1479274 C24.2727445,26.0097752 42.3369748,28.4545582 58.4280923,24.0193761 C58.1070602,27.0346085 57.9638304,32.9885195 60.7148287,38.5497836 C60.907448,38.9350221 61.2852781,39.1943173 61.7149673,39.2313595 C62.1446564,39.2535848 62.5619982,39.0807213 62.8163544,38.7325249 C63.8757604,37.2952888 65.2142173,36.5742013 66.2341117,36.9149893 C67.1626353,37.2212045 67.5676297,38.2509768 67.7256763,38.836243 C68.0467084,40.0141839 67.9627462,41.4934011 67.4984843,42.903473 C66.6168807,45.575448 64.473374,47.4596596 62.9274809,46.960825 C62.7644953,46.908966 62.6113877,46.8274732 62.4706275,46.7262247 C62.1051448,46.4669295 61.6235966,46.4298873 61.2186022,46.6175676 C60.8136079,46.8151259 60.5444348,47.2127118 60.51974,47.6621568 C59.8282862,59.7107391 49.8392484,69.1490833 37.7807882,69.1490833 C25.7198585,69.1490833 15.7308207,59.7107391 15.0393669,47.6621568 L15.0393669,47.6621568 Z M11.4018261,15.2551993 C11.5104831,15.1440728 11.5969148,15.0156599 11.6586518,14.8724302 C11.9451112,14.1760375 19.0053483,-2.06324872 40.1514869,4.27343138 C54.2941864,8.50364689 61.4902448,9.22226494 64.969739,9.10373 L63.5399114,11.4596118 C63.2336961,11.9658548 63.3398837,12.6276749 63.7769812,13.0252608 C63.8362487,13.0795893 69.6049489,18.5889943 63.9399668,34.7591351 C63.3423531,34.996205 62.7546174,35.3147676 62.2014544,35.7839684 C59.7542019,29.3262839 61.1222926,22.6191821 61.1371094,22.5450978 C61.2284801,22.1178781 61.0852504,21.6733721 60.7592793,21.3770348 C60.4357777,21.0831669 59.9789243,20.9843878 59.5615826,21.1103312 C41.1368085,26.8815009 18.3262419,22.5129946 18.0965804,22.468544 C17.7409756,22.3919902 17.3606761,22.4932388 17.0742166,22.7278392 C16.7902267,22.9599701 16.6247717,23.3106359 16.6247717,23.6785881 C16.6247717,30.3214835 14.7578464,34.2800564 13.6515204,36.0432636 C12.8736348,35.3172371 12.026604,34.8159331 11.1622867,34.5615769 C11.0289349,34.2183195 5.84550096,20.9621625 11.4018261,15.2551993 L11.4018261,15.2551993 Z M48.9181332,72.7347651 L48.9181332,69.0256094 C56.3636088,65.3485569 61.7692958,58.1080479 62.8361102,49.4698145 C65.6216812,49.8995037 68.587524,47.4892933 69.8444883,43.6739501 C70.4667967,41.792208 70.5606368,39.84379 70.1111919,38.1867703 C69.6172963,36.3766431 68.4862755,35.0579419 67.0095277,34.5714548 C66.8835843,34.5294737 66.7502325,34.5319432 66.6218197,34.5023094 C71.1903537,20.6510083 67.75531,14.0846668 66.1229852,11.9633853 L68.4368859,8.15298104 C68.7134674,7.69859712 68.6418526,7.12814774 68.2985951,6.72315338 C67.9528682,6.31568954 67.362663,6.19221564 66.8687675,6.38977387 C66.8193779,6.41199917 61.9495677,8.22212642 40.860227,1.90520214 C19.0102872,-4.61915827 10.4930582,11.5608604 9.48304179,13.6895503 C3.86744922,19.7224846 7.35188243,31.2302513 8.53723179,34.5763938 C5.5960837,35.5567765 4.35393635,39.5499221 5.71214916,43.6739501 C6.97158285,47.4917628 9.95718154,49.8772784 12.7254662,49.4698145 C13.8317922,58.438958 19.6251872,65.8794947 27.5126994,69.4083785 L27.5126994,72.7668683 C12.0932799,76.8340983 0.000246947782,80.2518556 0.000246947782,97.9308473 L0.000246947782,127.176873 C0.000246947782,127.860919 0.55340998,128.411612 1.23498586,128.411612 C1.91656174,128.411612 2.46972477,127.860919 2.46972477,127.176873 L2.46972477,97.9308473 C2.46972477,83.0744688 11.468502,79.6320167 25.4457465,75.8685325 L24.0628389,77.7799083 C23.8109521,78.1281047 23.7590931,78.5849581 23.9270176,78.9850135 L27.6830934,87.8627863 C27.8337315,88.2183911 28.1448857,88.4850947 28.5251853,88.5789348 C28.8980764,88.6703055 29.3006013,88.5814043 29.6018776,88.3344565 L37.2523199,82.0595134 L37.2523199,127.176873 C37.2523199,127.860919 37.805483,128.411612 38.4870588,128.411612 C39.1711042,128.411612 39.7217978,127.860919 39.7217978,127.176873 L39.7217978,82.4546298 L46.8215465,88.3072923 C47.1203533,88.55424 47.5154698,88.6505497 47.8982388,88.55424 C48.2760689,88.4628694 48.5896926,88.1961658 48.7428002,87.840561 L52.5211013,78.9701966 C52.6914953,78.5726107 52.6396363,78.1132878 52.3877495,77.7650914 L51.0122504,75.8537156 C64.9450443,79.6418946 73.936413,83.106572 73.8993708,97.9752979 L73.8302255,127.176873 C73.8302255,127.858449 74.380919,128.411612 75.0624949,128.411612 L75.0649644,128.411612 C75.7465403,128.411612 76.2997033,127.863388 76.2997033,127.179343 L76.3688487,97.9802369 C76.4132993,80.2963062 64.3424917,76.8489152 48.9181332,72.7347651 L48.9181332,72.7347651 Z" id="Fill-11" fill="#00ABFE" mask="url(#mask-2)"></path>
                    </g>
                </g>
            </g>
        </g>
    </g>
</svg>