<?xml version="1.0" encoding="UTF-8"?>
<svg width="103px" height="118px" viewBox="0 0 103 118" version="1.1" xmlns="http://www.w3.org/2000/svg" xmlns:xlink="http://www.w3.org/1999/xlink">
    <!-- Generator: Sketch 46.1 (44463) - http://www.bohemiancoding.com/sketch -->
    <title>Page 1</title>
    <desc>Created with Sketch.</desc>
    <defs>
        <linearGradient x1="25.0233386%" y1="11.2171574%" x2="111.366125%" y2="93.5328628%" id="linearGradient-1">
            <stop stop-color="#00CDFE" offset="0%"></stop>
            <stop stop-color="#00ABFE" offset="100%"></stop>
        </linearGradient>
        <linearGradient x1="87.0963503%" y1="11.181346%" x2="13.5191947%" y2="85.242061%" id="linearGradient-2">
            <stop stop-color="#00CDFE" offset="0%"></stop>
            <stop stop-color="#00ABFE" offset="100%"></stop>
        </linearGradient>
    </defs>
    <g id="-" stroke="none" stroke-width="1" fill="none" fill-rule="evenodd">
        <g id="01" transform="translate(-584.000000, -124.000000)">
            <g id="Page-1" transform="translate(584.000000, 124.000000)">
                <polygon id="Fill-1" fill="#CADBE8" points="17.1036753 82.6743171 41.3196835 82.6743171 41.3196835 34.2437569 17.1036753 34.2437569"></polygon>
                <polygon id="Fill-2" fill="#CADBE8" points="61.4428966 82.6743171 85.6589048 82.6743171 85.6589048 34.2437569 61.4428966 34.2437569"></polygon>
                <polygon id="Fill-3" fill="url(#linearGradient-1)" points="17.1086266 34.2457228 34.2319613 17.1223881 68.4779025 51.3690575 51.3545678 68.4916641"></polygon>
                <polygon id="Fill-4" fill="url(#linearGradient-2)" points="85.6016013 0 34.2337816 51.3685479 51.3571163 68.4918826 102.724936 17.1233347 102.724936 17.1218785 85.6030576 0"></polygon>
                <g id="Group-17" transform="translate(0.000000, 99.772896)" fill="#CADBE8">
                    <polygon id="Fill-15" points="99.0192853 17.7728229 102.127654 17.7728229 102.127654 0.891954119 99.0192853 0.891954119"></polygon>
                    <path d="M12.6239541,17.7728229 C12.6239541,17.3658006 12.9355919,3.90493873 12.9355919,3.90493873 L9.27675971,17.7728229 L6.43197217,17.7728229 L2.77386809,3.90493873 C2.77386809,3.90493873 3.08404969,17.2223598 3.08404969,17.7728229 L-0.000291250325,17.7728229 L-0.000291250325,0.891954119 L4.59054199,0.891954119 L7.89040817,13.420815 L11.142218,0.891954119 L15.708295,0.891954119 L15.708295,17.7728229 L12.6239541,17.7728229 Z" id="Fill-5"></path>
                    <polygon id="Fill-8" points="38.1083575 17.7728229 38.1083575 10.0976488 30.8635056 10.0976488 30.8635056 17.7728229 27.6837802 17.7728229 27.6837802 0.891954119 30.8635056 0.891954119 30.8635056 7.25286121 38.1083575 7.25286121 38.1083575 0.891954119 41.2880829 0.891954119 41.2880829 17.7728229"></polygon>
                    <polygon id="Fill-10" points="53.2390303 17.7728229 53.2390303 0.891954119 65.240728 0.891954119 65.240728 3.71344164 56.3473993 3.71344164 56.3473993 7.68318356 64.5002241 7.68318356 64.5002241 10.4085585 56.3473993 10.4085585 56.3473993 14.9273073 65.8392474 14.9273073 65.8392474 17.7728229"></polygon>
                    <path d="M89.5543051,13.0627955 C89.0045701,14.4972033 87.1150836,18.2033637 82.261397,18.2033637 C78.2690831,18.2033637 74.3714257,15.4772607 74.3714257,9.16513802 C74.3714257,5.41164947 76.4997374,0.461850202 82.3815377,0.461850202 C86.7328176,0.461850202 88.5261915,3.25930957 89.2433954,5.67450289 L86.1109981,6.48781942 C85.9202292,4.64638924 84.3656806,3.35542218 82.5009504,3.35542218 C79.7515473,3.35542218 77.7914326,5.45970577 77.7914326,9.21319433 C77.7914326,11.5082469 78.7234337,15.2144073 82.4769222,15.2144073 C84.6532903,15.2144073 86.06367,13.540446 86.5660768,11.8191566 L89.5543051,13.0627955 Z" id="Fill-12"></path>
                </g>
            </g>
        </g>
    </g>
</svg>