<?xml version="1.0" encoding="UTF-8"?>
<svg width="52px" height="88px" viewBox="0 0 52 88" version="1.1" xmlns="http://www.w3.org/2000/svg" xmlns:xlink="http://www.w3.org/1999/xlink">
    <!-- Generator: Sketch 45.2 (43514) - http://www.bohemiancoding.com/sketch -->
    <title>Page 1</title>
    <desc>Created with Sketch.</desc>
    <defs>
        <polygon id="path-1" points="51.748778 87.014085 51.748778 0.247657854 0.000167336388 0.247657854 0.000167336388 87.014085"></polygon>
    </defs>
    <g id="-" stroke="none" stroke-width="1" fill="none" fill-rule="evenodd">
        <g id="51" transform="translate(-525.000000, -153.000000)">
            <g id="Group-4" transform="translate(479.000000, 102.000000)">
                <g id="Page-1" transform="translate(46.000000, 50.909594)">
                    <path d="M10.6651847,65.9052383 C10.2033363,65.9052383 9.82850275,66.2800718 9.82850275,66.7419203 L9.82850275,86.7921663 C9.82850275,87.2556881 10.2033363,87.6288482 10.6651847,87.6288482 C11.1270331,87.6288482 11.5018666,87.2556881 11.5018666,86.7921663 L11.5018666,66.7419203 C11.5018666,66.2800718 11.1270331,65.9052383 10.6651847,65.9052383" id="Fill-1" fill="#00ABFE"></path>
                    <path d="M40.6043419,65.9052383 C40.1424934,65.9052383 39.7676599,66.2800718 39.7676599,66.7419203 L39.7676599,86.7921663 C39.7676599,87.2556881 40.1424934,87.6288482 40.6043419,87.6288482 C41.0661903,87.6288482 41.4410238,87.2556881 41.4410238,86.7921663 L41.4410238,66.7419203 C41.4410238,66.2800718 41.0661903,65.9052383 40.6043419,65.9052383" id="Fill-3" fill="#00ABFE"></path>
                    <path d="M25.2426941,37.5201342 L28.3333972,37.5201342 C28.7952456,37.5201342 29.1700791,37.1453007 29.1700791,36.6834523 L29.1700791,27.9049853 C29.6787818,27.4632173 30.8819304,26.5997615 32.4799929,26.5997615 C34.5248436,26.5997615 35.6175502,28.0288143 35.6610576,28.0840353 C35.8233739,28.3099394 36.0793986,28.4287482 36.3370966,28.4287482 C36.5077798,28.4287482 36.6801362,28.376874 36.8290656,28.2697787 C37.2022258,27.9986937 37.285894,27.4749308 37.0131356,27.1000973 C36.9495478,27.0130824 35.3983395,24.9263976 32.4799929,24.9263976 C29.6168673,24.9263976 27.7443731,26.9428011 27.665725,27.0281427 C27.4599013,27.2540468 27.4147204,27.558599 27.4967153,27.829684 L27.4967153,35.8467703 L25.2426941,35.8467703 C24.7808457,35.8467703 24.4060122,36.2216038 24.4060122,36.6834523 C24.4060122,37.1453007 24.7808457,37.5201342 25.2426941,37.5201342" id="Fill-5" fill="#00ABFE"></path>
                    <path d="M22.3501173,27.9668998 C22.514107,28.1928039 22.7684583,28.3116128 23.0278297,28.3116128 C23.1985128,28.3116128 23.3691959,28.2597385 23.5181253,28.1509698 C23.8929588,27.8798849 23.9749536,27.3577954 23.7038687,26.9829618 C23.6386075,26.8942736 22.0873992,24.8075888 19.1690526,24.8075888 C16.305927,24.8075888 14.4334328,26.8239923 14.3547847,26.9110072 C14.043539,27.2523734 14.0686395,27.7828298 14.4100057,28.0924021 C14.7496986,28.4053211 15.2784816,28.3802207 15.5914006,28.0388544 C15.6064609,28.0221208 17.037187,26.4809527 19.1690526,26.4809527 C21.2139032,26.4809527 22.3082832,27.9116788 22.3501173,27.9668998" id="Fill-7" fill="#00ABFE"></path>
                    <path d="M31.701544,40.8374107 C32.0813976,40.576366 32.175106,40.0576232 31.9140612,39.6777696 C31.6546898,39.2995893 31.1342737,39.1991875 30.7527467,39.4602323 C30.7343397,39.4719458 28.8384184,40.7386823 26.0338606,40.7386823 C23.2945639,40.7386823 21.8638378,39.5623075 21.8086168,39.5171266 C21.4588837,39.2142478 20.9301007,39.2527352 20.6272219,39.6024682 C20.3260164,39.9505279 20.3628304,40.4793109 20.7125634,40.7821897 C20.7895382,40.8491243 22.6335852,42.4120462 26.0338606,42.4120462 C29.3822617,42.4120462 31.6078356,40.9026719 31.701544,40.8374107" id="Fill-9" fill="#00ABFE"></path>
                    <g id="Group-13" transform="translate(0.000000, 0.614596)">
                        <mask id="mask-2" fill="white">
                            <use xlink:href="#path-1"></use>
                        </mask>
                        <g id="Clip-12"></g>
                        <path d="M31.9279502,57.8356391 L28.7150915,55.1867041 L29.2857086,55.1867041 C31.1280822,55.1867041 32.6692504,53.8881737 33.0524507,52.1595888 L33.8657055,53.2891094 L31.9279502,57.8356391 Z M19.8629966,57.8540461 L17.9386281,53.3024963 L18.7468629,52.1846893 C19.1401034,53.8998872 20.6712313,55.1867041 22.5052381,55.1867041 L23.1143426,55.1867041 L19.8629966,57.8540461 Z M25.6009613,48.5300625 C27.6625456,48.5300625 29.6387884,48.1535557 31.4744685,47.47919 L31.4744685,51.3245802 C31.4744685,52.5310756 30.4938773,53.5133402 29.2857086,53.5133402 L22.5052381,53.5133402 C21.2970694,53.5133402 20.3164782,52.5310756 20.3164782,51.3245802 L20.3164782,47.6783203 C21.984822,48.2221636 23.7569143,48.5300625 25.6009613,48.5300625 L25.6009613,48.5300625 Z M10.1909534,32.2967596 C10.1742197,31.9938807 9.99349642,31.7227957 9.71906475,31.5889266 C9.60360264,31.535379 9.47977371,31.5086052 9.35594479,31.5086052 C9.18526167,31.5086052 9.01457855,31.5604794 8.87066926,31.6625546 C8.77528752,31.7311626 8.6698656,31.7863836 8.56109694,31.8215242 C7.50353097,32.1595437 6.05774458,30.8827671 5.46202704,29.0721874 C4.86296277,27.2582609 5.26289674,25.3623396 6.31878934,25.01428 C7.00486854,24.7867025 7.91517849,25.2703046 8.63472495,26.2458758 C8.78030761,26.4433327 9.00621174,26.5671616 9.25052286,26.5855686 C9.48312044,26.5989555 9.73412502,26.5119406 9.9064815,26.3362374 C10.0252903,26.2157552 12.6658585,23.4396445 12.9185365,17.0407011 C16.4476609,17.6247051 28.6883177,19.2813353 39.5919567,16.2759738 C39.3744194,18.3191511 39.2773643,22.3536314 41.1414917,26.1220468 C41.2720141,26.3830916 41.5280387,26.5587948 41.819204,26.5838953 C42.1103694,26.5989555 42.3931679,26.4818201 42.5655243,26.2458758 C43.2833974,25.271978 44.1903607,24.7833557 44.8814599,25.01428 C45.5106448,25.2217771 45.7850764,25.9195698 45.8921717,26.316157 C46.109709,27.1143516 46.0528147,28.1166966 45.7382223,29.0721874 C45.1408313,30.8827671 43.6883515,32.1595437 42.6408257,31.8215242 C42.5303837,31.7863836 42.4266351,31.7311626 42.3312534,31.6625546 C42.0835955,31.4868514 41.7572896,31.461751 41.4828579,31.5889266 C41.2084262,31.7227957 41.0260296,31.9922073 41.0092959,32.2967596 C40.540754,40.4611019 33.7719971,46.8566987 25.6009613,46.8566987 C17.4282521,46.8566987 10.6594952,40.4611019 10.1909534,32.2967596 L10.1909534,32.2967596 Z M7.72608837,10.3372054 C7.79971638,10.261904 7.85828411,10.1748891 7.90011821,10.077834 C8.09422842,9.60594535 12.8783758,-1.39809552 27.2073907,2.89575619 C36.7907456,5.76222852 41.6669279,6.24917741 44.0246976,6.16885594 L43.05582,7.76524508 C42.8483228,8.10828468 42.9202775,8.5567462 43.2164629,8.82615778 C43.2566236,8.86297179 47.1656016,12.5962466 43.3269049,23.5534333 C42.9219508,23.7140762 42.5236902,23.9299402 42.1488567,24.2478793 C40.4905531,19.8720327 41.4175967,15.3271765 41.4276369,15.2769755 C41.4895514,14.9874836 41.3924963,14.6862781 41.1716122,14.4854744 C40.9524016,14.2863441 40.6428292,14.2194096 40.3600307,14.3047511 C27.8750628,18.2154025 12.4182007,15.2552218 12.2625778,15.2251013 C12.0216134,15.173227 11.7639154,15.2418349 11.5698052,15.4008045 C11.3773684,15.5581007 11.265253,15.7957183 11.265253,16.0450496 C11.265253,20.5463984 10.0001899,23.2288007 9.25052286,24.4235825 C8.72341324,23.9316135 8.14944943,23.5919207 7.56377207,23.4195642 C7.47341042,23.1869666 3.96101964,14.2043493 7.72608837,10.3372054 L7.72608837,10.3372054 Z M33.1478324,49.286423 L33.1478324,46.7730305 C38.1930245,44.2813917 41.8560181,39.3750888 42.5789112,33.5216619 C44.4664657,33.8128272 46.4761757,32.1796241 47.3279179,29.5942769 C47.7496056,28.3191736 47.8131935,26.9988895 47.5086412,25.8760623 C47.1739685,24.6494866 46.4075678,23.7559103 45.4068962,23.4262576 C45.3215546,23.3978104 45.231193,23.3994838 45.1441781,23.3794034 C48.2399013,13.9935054 45.9122521,9.54403089 44.8061586,8.10661131 L46.3741005,5.52461085 C46.5615173,5.21671189 46.5129897,4.83016484 46.2803921,4.55573316 C46.0461212,4.27962812 45.6461872,4.19595993 45.3115145,4.32982904 C45.2780472,4.34488931 41.9781736,5.57146504 27.6876461,1.29100023 C12.8817225,-3.13002714 7.11029046,7.833853 6.42588463,9.27629267 C2.62065517,13.3643206 4.98177161,21.1621963 5.78498627,23.4296044 C3.79200989,24.0939298 2.95030786,26.7997592 3.87065799,29.5942769 C4.72407357,32.1812974 6.7471705,33.797767 8.62301141,33.5216619 C9.37267842,39.5993195 13.2983901,44.6411649 18.6431143,47.0324019 L18.6431143,49.3081768 C8.19463025,52.0642071 0.000167336388,54.3801427 0.000167336388,66.3597547 L0.000167336388,86.1774031 C0.000167336388,86.6409249 0.375000845,87.014085 0.836849276,87.014085 C1.29869771,87.014085 1.67353122,86.6409249 1.67353122,86.1774031 L1.67353122,66.3597547 C1.67353122,56.2927976 7.77126919,53.9601283 17.2425087,51.4099218 L16.305425,52.7051054 C16.1347419,52.9410497 16.0996012,53.2506221 16.21339,53.521707 L18.7585764,59.5374501 C18.8606516,59.7784145 19.0714955,59.9591378 19.3291935,60.0227257 C19.5818715,60.0846401 19.8546298,60.024399 20.0587802,59.8570626 L25.2428615,55.605045 L25.2428615,86.1774031 C25.2428615,86.6409249 25.617695,87.014085 26.0795434,87.014085 C26.5430652,87.014085 26.9162253,86.6409249 26.9162253,86.1774031 L26.9162253,55.8727832 L31.7271465,59.8386556 C31.9296235,60.005992 32.1973617,60.0712532 32.4567331,60.005992 C32.7127578,59.9440776 32.925275,59.7633543 33.0290236,59.5223899 L35.5892703,53.5116668 C35.7047324,53.2422552 35.6695918,52.9310095 35.4989087,52.6950652 L34.566845,51.3998816 C44.007964,53.9668218 50.1006819,56.3145513 50.0755814,66.3898752 L50.0287272,86.1774031 C50.0287272,86.6392515 50.4018874,87.014085 50.8637358,87.014085 L50.8654092,87.014085 C51.3272576,87.014085 51.7020911,86.6425983 51.7020911,86.1790765 L51.7489453,66.393222 C51.7790659,54.4102632 43.5996632,52.0742472 33.1478324,49.286423 L33.1478324,49.286423 Z" id="Fill-11" fill="#00ABFE" mask="url(#mask-2)"></path>
                    </g>
                </g>
            </g>
        </g>
    </g>
</svg>